<?xml version="1.0" encoding="utf-8"?>
<!-- Generator: Adobe Illustrator 19.0.0, SVG Export Plug-In . SVG Version: 6.00 Build 0)  -->
<svg version="1.1" id="Layer_1" xmlns="http://www.w3.org/2000/svg" xmlns:xlink="http://www.w3.org/1999/xlink" x="0px" y="0px"
	 viewBox="0 0 108 108" style="enable-background:new 0 0 108 108;" xml:space="preserve">
<style type="text/css">
	.st0{fill:#BCBDC0;}
	.st1{fill:none;stroke:#071827;stroke-width:0.8;stroke-miterlimit:10;}
	.st2{fill:#777A7E;}
	.st3{fill:none;stroke:#071827;stroke-width:0.8;stroke-miterlimit:10;stroke-dasharray:7.1893,0.5135;}
	.st4{fill:#F99E22;stroke:#071827;stroke-width:0.8;stroke-miterlimit:10;}
	.st5{fill:none;stroke:#071827;stroke-width:0.8;stroke-linecap:round;stroke-miterlimit:10;}
	.st6{fill:none;stroke:#071827;stroke-width:1.2;stroke-linecap:round;stroke-miterlimit:10;stroke-dasharray:0;}
	
		.st7{fill:#F99E22;stroke:#071827;stroke-width:1.2;stroke-linecap:round;stroke-linejoin:round;stroke-miterlimit:10;stroke-dasharray:0;}
	
		.st8{fill:#FCCF13;stroke:#071827;stroke-width:1.2;stroke-linecap:round;stroke-linejoin:round;stroke-miterlimit:10;stroke-dasharray:0;}
	.st9{fill:#373D43;stroke:#071827;stroke-width:0.8;stroke-miterlimit:10;}
	.st10{fill:none;stroke:#9A9B9E;stroke-width:0.8;stroke-linecap:round;stroke-miterlimit:10;}
	.st11{fill:none;stroke:#F2EA12;stroke-width:0.8;stroke-linecap:round;stroke-miterlimit:10;}
</style>
<g id="Outer_track">
	<path id="XMLID_45_" class="st0" d="M80.2,54.9H27.8c-2.4,0-4.4,2-4.4,4.6s2,4.6,4.4,4.6h52.4c2.4,0,4.4-2,4.4-4.6
		S82.7,54.9,80.2,54.9z"/>
	<g id="XMLID_43_">
		<path id="XMLID_44_" class="st1" d="M80.2,54.9H27.8c-2.4,0-4.4,2-4.4,4.6s2,4.6,4.4,4.6h52.4c2.4,0,4.4-2,4.4-4.6
			S82.7,54.9,80.2,54.9z"/>
	</g>
</g>
<g id="Inner_track">
	<path id="XMLID_37_" class="st2" d="M27.8,56.5c-1.6,0-2.9,1.3-2.9,3s1.3,3,2.9,3l52.4,0c1.6,0,2.9-1.3,2.9-3s-1.3-3-2.9-3
		C80.2,56.5,27.8,56.5,27.8,56.5z"/>
	<path id="XMLID_36_" class="st3" d="M27.8,56.5c-1.6,0-2.9,1.3-2.9,3s1.3,3,2.9,3l52.4,0c1.6,0,2.9-1.3,2.9-3s-1.3-3-2.9-3
		C80.2,56.5,27.8,56.5,27.8,56.5z"/>
</g>
<path id="Wheel" class="st4" d="M80.2,56.5c-1.6,0-3,1.3-3,3s1.3,3,3,3c1.6,0,3-1.3,3-3S81.8,56.5,80.2,56.5z M80.2,60.5
	c-0.5,0-0.9-0.4-0.9-0.9s0.4-0.9,0.9-0.9s0.9,0.4,0.9,0.9S80.7,60.5,80.2,60.5z"/>
<path id="Wheel_1_" class="st4" d="M27.8,56.5c-1.6,0-3,1.3-3,3s1.3,3,3,3c1.6,0,3-1.3,3-3S29.4,56.5,27.8,56.5z M27.8,60.5
	c-0.5,0-0.9-0.4-0.9-0.9c0-0.5,0.4-0.9,0.9-0.9c0.5,0,0.9,0.4,0.9,0.9C28.7,60,28.3,60.5,27.8,60.5z"/>
<g id="Lower_long_speed">
	<line id="XMLID_22_" class="st5" x1="38" y1="65.5" x2="42.7" y2="65.5"/>
</g>
<g id="Lower_short_speed">
	<line id="XMLID_19_" class="st5" x1="33.3" y1="65.5" x2="35.7" y2="65.5"/>
</g>
<g id="Lower_curved_speed">
	<path id="XMLID_14_" class="st5" d="M23.4,63.6c0.8,1.1,2.1,1.9,3.6,1.9H28"/>
</g>
<g id="Upper_speed">
	<path id="XMLID_12_" class="st5" d="M84,54.8c-0.8-0.7-1.8-1.2-2.9-1.2H80"/>
</g>
<g id="XMLID_31_">
	<line id="XMLID_53_" class="st6" x1="46" y1="42.9" x2="55" y2="42.9"/>
	<line id="XMLID_35_" class="st6" x1="46" y1="45.7" x2="49.7" y2="45.7"/>
	<g id="XMLID_32_">
		<path id="XMLID_34_" class="st7" d="M38.3,53c-0.5,1.4-2,2.1-3.4,1.7c-1.4-0.5-2.1-2-1.7-3.4"/>
		<path id="XMLID_33_" class="st8" d="M42.4,48.5c0.9-2.6,0.5-1.5,1.1-3.3c0.6-1.7,0.5-4.7-2.4-6.1c0,0,0,0,0,0
			c0.2-0.7,0.1-1.4-0.3-1.5c-0.4-0.1-0.9,0.3-1.2,1c0,0,0,0,0,0c-3.2-0.7-5.1,1.7-5.7,3.3c-0.6,1.8-0.2,0.7-1.1,3.3
			c-0.9,2.6-4.8,4.2-4.8,4.2l7.4,2.5l8.1,2.8C43.5,54.8,41.4,51.2,42.4,48.5z"/>
	</g>
</g>
<g id="XMLID_17_">
	<line id="XMLID_30_" class="st6" x1="74.9" y1="42.9" x2="84" y2="42.9"/>
	<line id="XMLID_29_" class="st6" x1="74.9" y1="45.7" x2="78.7" y2="45.7"/>
	<g id="XMLID_26_">
		<path id="XMLID_28_" class="st7" d="M67.2,53c-0.5,1.4-2,2.1-3.4,1.7c-1.4-0.5-2.1-2-1.7-3.4"/>
		<path id="XMLID_27_" class="st8" d="M71.3,48.5c0.9-2.6,0.5-1.5,1.1-3.3c0.6-1.7,0.5-4.7-2.4-6.1c0,0,0,0,0,0
			c0.2-0.7,0.1-1.4-0.3-1.5c-0.4-0.1-0.9,0.3-1.2,1c0,0,0,0,0,0c-3.2-0.7-5.1,1.7-5.7,3.3c-0.6,1.8-0.2,0.7-1.1,3.3
			c-0.9,2.6-4.8,4.2-4.8,4.2l7.4,2.5l8.1,2.8C72.5,54.8,70.4,51.2,71.3,48.5z"/>
	</g>
</g>
<circle id="XMLID_5_" class="st9" cx="54" cy="59.5" r="10"/>
<line id="XMLID_4_" class="st10" x1="54" y1="59.5" x2="52.3" y2="62.4"/>
<line id="XMLID_3_" class="st11" x1="54" y1="59.5" x2="49.9" y2="52.4"/>
</svg>
